<?xml version='1.0' encoding='utf-8'?>
<svg xmlns="http://www.w3.org/2000/svg" version="1.1" width="960" height="640" viewBox="0 0 960 640">
<title>FNLLA guidebook-01 / editable vector source</title><defs>
<clipPath id="clip_1">
<path transform="matrix(1,0,0,-1,0,640)" d="M928 58H952V477H928Z" clip-rule="evenodd" />
</clipPath>
</defs>
<path transform="matrix(1,0,0,-1,0,640)" d="M0 0H960V640H0Z" fill="#ffffff" fill-rule="evenodd" />
<g clip-path="url(#clip_1)">
<text fill="#dce9fc" xml:space="preserve" transform="matrix(1 0 -0 1 0 640)" font-size="6" font-family="JetBrains Mono" style="font-kerning:none;letter-spacing:0"><tspan y="-471" x="933.7">1</tspan></text>
<text fill="#dce9fc" xml:space="preserve" transform="matrix(1 0 -0 1 0 640)" font-size="6" font-family="JetBrains Mono" style="font-kerning:none;letter-spacing:0"><tspan y="-471" x="939.4">0</tspan></text>
<text fill="#dce9fc" xml:space="preserve" transform="matrix(1 0 -0 1 0 640)" font-size="6" font-family="JetBrains Mono" style="font-kerning:none;letter-spacing:0"><tspan y="-471" x="945.1">0</tspan></text>
<text fill="#dce9fc" xml:space="preserve" transform="matrix(1 0 -0 1 0 640)" font-size="6" font-family="JetBrains Mono" style="font-kerning:none;letter-spacing:0"><tspan y="-460.8" x="928">0</tspan></text>
<text fill="#dce9fc" xml:space="preserve" transform="matrix(1 0 -0 1 0 640)" font-size="6" font-family="JetBrains Mono" style="font-kerning:none;letter-spacing:0"><tspan y="-460.8" x="933.7">1</tspan></text>
<text fill="#dce9fc" xml:space="preserve" transform="matrix(1 0 -0 1 0 640)" font-size="6" font-family="JetBrains Mono" style="font-kerning:none;letter-spacing:0"><tspan y="-460.8" x="939.4">0</tspan></text>
<text fill="#dce9fc" xml:space="preserve" transform="matrix(1 0 -0 1 0 640)" font-size="6" font-family="JetBrains Mono" style="font-kerning:none;letter-spacing:0"><tspan y="-460.8" x="945.1">0</tspan></text>
<text fill="#dce9fc" xml:space="preserve" transform="matrix(1 0 -0 1 0 640)" font-size="6" font-family="JetBrains Mono" style="font-kerning:none;letter-spacing:0"><tspan y="-450.6" x="928">0</tspan></text>
<text fill="#dce9fc" xml:space="preserve" transform="matrix(1 0 -0 1 0 640)" font-size="6" font-family="JetBrains Mono" style="font-kerning:none;letter-spacing:0"><tspan y="-450.6" x="933.7">1</tspan></text>
<text fill="#dce9fc" xml:space="preserve" transform="matrix(1 0 -0 1 0 640)" font-size="6" font-family="JetBrains Mono" style="font-kerning:none;letter-spacing:0"><tspan y="-450.6" x="939.4">0</tspan></text>
<text fill="#dce9fc" xml:space="preserve" transform="matrix(1 0 -0 1 0 640)" font-size="6" font-family="JetBrains Mono" style="font-kerning:none;letter-spacing:0"><tspan y="-450.6" x="945.1">0</tspan></text>
<text fill="#dce9fc" xml:space="preserve" transform="matrix(1 0 -0 1 0 640)" font-size="6" font-family="JetBrains Mono" style="font-kerning:none;letter-spacing:0"><tspan y="-440.4" x="928">0</tspan></text>
<text fill="#dce9fc" xml:space="preserve" transform="matrix(1 0 -0 1 0 640)" font-size="6" font-family="JetBrains Mono" style="font-kerning:none;letter-spacing:0"><tspan y="-440.4" x="933.7">1</tspan></text>
<text fill="#dce9fc" xml:space="preserve" transform="matrix(1 0 -0 1 0 640)" font-size="6" font-family="JetBrains Mono" style="font-kerning:none;letter-spacing:0"><tspan y="-440.4" x="939.4">0</tspan></text>
<text fill="#dce9fc" xml:space="preserve" transform="matrix(1 0 -0 1 0 640)" font-size="6" font-family="JetBrains Mono" style="font-kerning:none;letter-spacing:0"><tspan y="-440.4" x="945.1">0</tspan></text>
<text fill="#dce9fc" xml:space="preserve" transform="matrix(1 0 -0 1 0 640)" font-size="6" font-family="JetBrains Mono" style="font-kerning:none;letter-spacing:0"><tspan y="-430.2" x="928">0</tspan></text>
<text fill="#dce9fc" xml:space="preserve" transform="matrix(1 0 -0 1 0 640)" font-size="6" font-family="JetBrains Mono" style="font-kerning:none;letter-spacing:0"><tspan y="-430.2" x="933.7">1</tspan></text>
<text fill="#dce9fc" xml:space="preserve" transform="matrix(1 0 -0 1 0 640)" font-size="6" font-family="JetBrains Mono" style="font-kerning:none;letter-spacing:0"><tspan y="-430.2" x="939.4">0</tspan></text>
<text fill="#dce9fc" xml:space="preserve" transform="matrix(1 0 -0 1 0 640)" font-size="6" font-family="JetBrains Mono" style="font-kerning:none;letter-spacing:0"><tspan y="-430.2" x="945.1">0</tspan></text>
<text fill="#dce9fc" xml:space="preserve" transform="matrix(1 0 -0 1 0 640)" font-size="6" font-family="JetBrains Mono" style="font-kerning:none;letter-spacing:0"><tspan y="-420" x="928">0</tspan></text>
<text fill="#dce9fc" xml:space="preserve" transform="matrix(1 0 -0 1 0 640)" font-size="6" font-family="JetBrains Mono" style="font-kerning:none;letter-spacing:0"><tspan y="-420" x="933.7">1</tspan></text>
<text fill="#dce9fc" xml:space="preserve" transform="matrix(1 0 -0 1 0 640)" font-size="6" font-family="JetBrains Mono" style="font-kerning:none;letter-spacing:0"><tspan y="-420" x="939.4">0</tspan></text>
<text fill="#dce9fc" xml:space="preserve" transform="matrix(1 0 -0 1 0 640)" font-size="6" font-family="JetBrains Mono" style="font-kerning:none;letter-spacing:0"><tspan y="-420" x="945.1">0</tspan></text>
<text fill="#dce9fc" xml:space="preserve" transform="matrix(1 0 -0 1 0 640)" font-size="6" font-family="JetBrains Mono" style="font-kerning:none;letter-spacing:0"><tspan y="-399.6" x="928">0</tspan></text>
<text fill="#dce9fc" xml:space="preserve" transform="matrix(1 0 -0 1 0 640)" font-size="6" font-family="JetBrains Mono" style="font-kerning:none;letter-spacing:0"><tspan y="-399.6" x="933.7">1</tspan></text>
<text fill="#dce9fc" xml:space="preserve" transform="matrix(1 0 -0 1 0 640)" font-size="6" font-family="JetBrains Mono" style="font-kerning:none;letter-spacing:0"><tspan y="-399.6" x="939.4">0</tspan></text>
<text fill="#dce9fc" xml:space="preserve" transform="matrix(1 0 -0 1 0 640)" font-size="6" font-family="JetBrains Mono" style="font-kerning:none;letter-spacing:0"><tspan y="-399.6" x="945.1">0</tspan></text>
<text fill="#dce9fc" xml:space="preserve" transform="matrix(1 0 -0 1 0 640)" font-size="6" font-family="JetBrains Mono" style="font-kerning:none;letter-spacing:0"><tspan y="-389.4" x="928">0</tspan></text>
<text fill="#dce9fc" xml:space="preserve" transform="matrix(1 0 -0 1 0 640)" font-size="6" font-family="JetBrains Mono" style="font-kerning:none;letter-spacing:0"><tspan y="-389.4" x="933.7">1</tspan></text>
<text fill="#dce9fc" xml:space="preserve" transform="matrix(1 0 -0 1 0 640)" font-size="6" font-family="JetBrains Mono" style="font-kerning:none;letter-spacing:0"><tspan y="-389.4" x="939.4">0</tspan></text>
<text fill="#dce9fc" xml:space="preserve" transform="matrix(1 0 -0 1 0 640)" font-size="6" font-family="JetBrains Mono" style="font-kerning:none;letter-spacing:0"><tspan y="-389.4" x="945.1">0</tspan></text>
<text fill="#dce9fc" xml:space="preserve" transform="matrix(1 0 -0 1 0 640)" font-size="6" font-family="JetBrains Mono" style="font-kerning:none;letter-spacing:0"><tspan y="-379.2" x="928">0</tspan></text>
<text fill="#dce9fc" xml:space="preserve" transform="matrix(1 0 -0 1 0 640)" font-size="6" font-family="JetBrains Mono" style="font-kerning:none;letter-spacing:0"><tspan y="-379.2" x="933.7">1</tspan></text>
<text fill="#dce9fc" xml:space="preserve" transform="matrix(1 0 -0 1 0 640)" font-size="6" font-family="JetBrains Mono" style="font-kerning:none;letter-spacing:0"><tspan y="-379.2" x="939.4">0</tspan></text>
<text fill="#dce9fc" xml:space="preserve" transform="matrix(1 0 -0 1 0 640)" font-size="6" font-family="JetBrains Mono" style="font-kerning:none;letter-spacing:0"><tspan y="-369" x="928">0</tspan></text>
<text fill="#dce9fc" xml:space="preserve" transform="matrix(1 0 -0 1 0 640)" font-size="6" font-family="JetBrains Mono" style="font-kerning:none;letter-spacing:0"><tspan y="-369" x="933.7">1</tspan></text>
<text fill="#dce9fc" xml:space="preserve" transform="matrix(1 0 -0 1 0 640)" font-size="6" font-family="JetBrains Mono" style="font-kerning:none;letter-spacing:0"><tspan y="-369" x="939.4">0</tspan></text>
<text fill="#dce9fc" xml:space="preserve" transform="matrix(1 0 -0 1 0 640)" font-size="6" font-family="JetBrains Mono" style="font-kerning:none;letter-spacing:0"><tspan y="-369" x="945.1">0</tspan></text>
<text fill="#dce9fc" xml:space="preserve" transform="matrix(1 0 -0 1 0 640)" font-size="6" font-family="JetBrains Mono" style="font-kerning:none;letter-spacing:0"><tspan y="-358.8" x="933.7">1</tspan></text>
<text fill="#dce9fc" xml:space="preserve" transform="matrix(1 0 -0 1 0 640)" font-size="6" font-family="JetBrains Mono" style="font-kerning:none;letter-spacing:0"><tspan y="-358.8" x="939.4">0</tspan></text>
<text fill="#dce9fc" xml:space="preserve" transform="matrix(1 0 -0 1 0 640)" font-size="6" font-family="JetBrains Mono" style="font-kerning:none;letter-spacing:0"><tspan y="-358.8" x="945.1">0</tspan></text>
<text fill="#dce9fc" xml:space="preserve" transform="matrix(1 0 -0 1 0 640)" font-size="6" font-family="JetBrains Mono" style="font-kerning:none;letter-spacing:0"><tspan y="-348.6" x="928">0</tspan></text>
<text fill="#dce9fc" xml:space="preserve" transform="matrix(1 0 -0 1 0 640)" font-size="6" font-family="JetBrains Mono" style="font-kerning:none;letter-spacing:0"><tspan y="-348.6" x="933.7">1</tspan></text>
<text fill="#dce9fc" xml:space="preserve" transform="matrix(1 0 -0 1 0 640)" font-size="6" font-family="JetBrains Mono" style="font-kerning:none;letter-spacing:0"><tspan y="-348.6" x="939.4">0</tspan></text>
<text fill="#dce9fc" xml:space="preserve" transform="matrix(1 0 -0 1 0 640)" font-size="6" font-family="JetBrains Mono" style="font-kerning:none;letter-spacing:0"><tspan y="-348.6" x="945.1">0</tspan></text>
<text fill="#dce9fc" xml:space="preserve" transform="matrix(1 0 -0 1 0 640)" font-size="6" font-family="JetBrains Mono" style="font-kerning:none;letter-spacing:0"><tspan y="-328.2" x="928">0</tspan></text>
<text fill="#dce9fc" xml:space="preserve" transform="matrix(1 0 -0 1 0 640)" font-size="6" font-family="JetBrains Mono" style="font-kerning:none;letter-spacing:0"><tspan y="-328.2" x="933.7">1</tspan></text>
<text fill="#dce9fc" xml:space="preserve" transform="matrix(1 0 -0 1 0 640)" font-size="6" font-family="JetBrains Mono" style="font-kerning:none;letter-spacing:0"><tspan y="-328.2" x="939.4">0</tspan></text>
<text fill="#dce9fc" xml:space="preserve" transform="matrix(1 0 -0 1 0 640)" font-size="6" font-family="JetBrains Mono" style="font-kerning:none;letter-spacing:0"><tspan y="-328.2" x="945.1">0</tspan></text>
<text fill="#dce9fc" xml:space="preserve" transform="matrix(1 0 -0 1 0 640)" font-size="6" font-family="JetBrains Mono" style="font-kerning:none;letter-spacing:0"><tspan y="-318" x="928">0</tspan></text>
<text fill="#dce9fc" xml:space="preserve" transform="matrix(1 0 -0 1 0 640)" font-size="6" font-family="JetBrains Mono" style="font-kerning:none;letter-spacing:0"><tspan y="-318" x="933.7">1</tspan></text>
<text fill="#dce9fc" xml:space="preserve" transform="matrix(1 0 -0 1 0 640)" font-size="6" font-family="JetBrains Mono" style="font-kerning:none;letter-spacing:0"><tspan y="-318" x="945.1">0</tspan></text>
<text fill="#dce9fc" xml:space="preserve" transform="matrix(1 0 -0 1 0 640)" font-size="6" font-family="JetBrains Mono" style="font-kerning:none;letter-spacing:0"><tspan y="-307.8" x="928">0</tspan></text>
<text fill="#dce9fc" xml:space="preserve" transform="matrix(1 0 -0 1 0 640)" font-size="6" font-family="JetBrains Mono" style="font-kerning:none;letter-spacing:0"><tspan y="-307.8" x="933.7">1</tspan></text>
<text fill="#dce9fc" xml:space="preserve" transform="matrix(1 0 -0 1 0 640)" font-size="6" font-family="JetBrains Mono" style="font-kerning:none;letter-spacing:0"><tspan y="-307.8" x="939.4">0</tspan></text>
<text fill="#dce9fc" xml:space="preserve" transform="matrix(1 0 -0 1 0 640)" font-size="6" font-family="JetBrains Mono" style="font-kerning:none;letter-spacing:0"><tspan y="-307.8" x="945.1">0</tspan></text>
<text fill="#dce9fc" xml:space="preserve" transform="matrix(1 0 -0 1 0 640)" font-size="6" font-family="JetBrains Mono" style="font-kerning:none;letter-spacing:0"><tspan y="-297.6" x="928">0</tspan></text>
<text fill="#dce9fc" xml:space="preserve" transform="matrix(1 0 -0 1 0 640)" font-size="6" font-family="JetBrains Mono" style="font-kerning:none;letter-spacing:0"><tspan y="-297.6" x="933.7">1</tspan></text>
<text fill="#dce9fc" xml:space="preserve" transform="matrix(1 0 -0 1 0 640)" font-size="6" font-family="JetBrains Mono" style="font-kerning:none;letter-spacing:0"><tspan y="-297.6" x="939.4">0</tspan></text>
<text fill="#dce9fc" xml:space="preserve" transform="matrix(1 0 -0 1 0 640)" font-size="6" font-family="JetBrains Mono" style="font-kerning:none;letter-spacing:0"><tspan y="-297.6" x="945.1">0</tspan></text>
<text fill="#dce9fc" xml:space="preserve" transform="matrix(1 0 -0 1 0 640)" font-size="6" font-family="JetBrains Mono" style="font-kerning:none;letter-spacing:0"><tspan y="-287.4" x="928">0</tspan></text>
<text fill="#dce9fc" xml:space="preserve" transform="matrix(1 0 -0 1 0 640)" font-size="6" font-family="JetBrains Mono" style="font-kerning:none;letter-spacing:0"><tspan y="-287.4" x="933.7">1</tspan></text>
<text fill="#dce9fc" xml:space="preserve" transform="matrix(1 0 -0 1 0 640)" font-size="6" font-family="JetBrains Mono" style="font-kerning:none;letter-spacing:0"><tspan y="-287.4" x="939.4">0</tspan></text>
<text fill="#dce9fc" xml:space="preserve" transform="matrix(1 0 -0 1 0 640)" font-size="6" font-family="JetBrains Mono" style="font-kerning:none;letter-spacing:0"><tspan y="-287.4" x="945.1">0</tspan></text>
<text fill="#dce9fc" xml:space="preserve" transform="matrix(1 0 -0 1 0 640)" font-size="6" font-family="JetBrains Mono" style="font-kerning:none;letter-spacing:0"><tspan y="-277.2" x="928">0</tspan></text>
<text fill="#dce9fc" xml:space="preserve" transform="matrix(1 0 -0 1 0 640)" font-size="6" font-family="JetBrains Mono" style="font-kerning:none;letter-spacing:0"><tspan y="-277.2" x="933.7">1</tspan></text>
<text fill="#dce9fc" xml:space="preserve" transform="matrix(1 0 -0 1 0 640)" font-size="6" font-family="JetBrains Mono" style="font-kerning:none;letter-spacing:0"><tspan y="-277.2" x="939.4">0</tspan></text>
<text fill="#dce9fc" xml:space="preserve" transform="matrix(1 0 -0 1 0 640)" font-size="6" font-family="JetBrains Mono" style="font-kerning:none;letter-spacing:0"><tspan y="-277.2" x="945.1">0</tspan></text>
<text fill="#dce9fc" xml:space="preserve" transform="matrix(1 0 -0 1 0 640)" font-size="6" font-family="JetBrains Mono" style="font-kerning:none;letter-spacing:0"><tspan y="-256.8" x="928">0</tspan></text>
<text fill="#dce9fc" xml:space="preserve" transform="matrix(1 0 -0 1 0 640)" font-size="6" font-family="JetBrains Mono" style="font-kerning:none;letter-spacing:0"><tspan y="-256.8" x="933.7">1</tspan></text>
<text fill="#dce9fc" xml:space="preserve" transform="matrix(1 0 -0 1 0 640)" font-size="6" font-family="JetBrains Mono" style="font-kerning:none;letter-spacing:0"><tspan y="-256.8" x="939.4">0</tspan></text>
<text fill="#dce9fc" xml:space="preserve" transform="matrix(1 0 -0 1 0 640)" font-size="6" font-family="JetBrains Mono" style="font-kerning:none;letter-spacing:0"><tspan y="-256.8" x="945.1">0</tspan></text>
<text fill="#dce9fc" xml:space="preserve" transform="matrix(1 0 -0 1 0 640)" font-size="6" font-family="JetBrains Mono" style="font-kerning:none;letter-spacing:0"><tspan y="-246.6" x="928">0</tspan></text>
<text fill="#dce9fc" xml:space="preserve" transform="matrix(1 0 -0 1 0 640)" font-size="6" font-family="JetBrains Mono" style="font-kerning:none;letter-spacing:0"><tspan y="-246.6" x="933.7">1</tspan></text>
<text fill="#dce9fc" xml:space="preserve" transform="matrix(1 0 -0 1 0 640)" font-size="6" font-family="JetBrains Mono" style="font-kerning:none;letter-spacing:0"><tspan y="-246.6" x="939.4">0</tspan></text>
<text fill="#dce9fc" xml:space="preserve" transform="matrix(1 0 -0 1 0 640)" font-size="6" font-family="JetBrains Mono" style="font-kerning:none;letter-spacing:0"><tspan y="-246.6" x="945.1">0</tspan></text>
<text fill="#dce9fc" xml:space="preserve" transform="matrix(1 0 -0 1 0 640)" font-size="6" font-family="JetBrains Mono" style="font-kerning:none;letter-spacing:0"><tspan y="-236.4" x="933.7">1</tspan></text>
<text fill="#dce9fc" xml:space="preserve" transform="matrix(1 0 -0 1 0 640)" font-size="6" font-family="JetBrains Mono" style="font-kerning:none;letter-spacing:0"><tspan y="-236.4" x="939.4">0</tspan></text>
<text fill="#dce9fc" xml:space="preserve" transform="matrix(1 0 -0 1 0 640)" font-size="6" font-family="JetBrains Mono" style="font-kerning:none;letter-spacing:0"><tspan y="-236.4" x="945.1">0</tspan></text>
<text fill="#dce9fc" xml:space="preserve" transform="matrix(1 0 -0 1 0 640)" font-size="6" font-family="JetBrains Mono" style="font-kerning:none;letter-spacing:0"><tspan y="-226.2" x="928">0</tspan></text>
<text fill="#dce9fc" xml:space="preserve" transform="matrix(1 0 -0 1 0 640)" font-size="6" font-family="JetBrains Mono" style="font-kerning:none;letter-spacing:0"><tspan y="-226.2" x="933.7">1</tspan></text>
<text fill="#dce9fc" xml:space="preserve" transform="matrix(1 0 -0 1 0 640)" font-size="6" font-family="JetBrains Mono" style="font-kerning:none;letter-spacing:0"><tspan y="-226.2" x="939.4">0</tspan></text>
<text fill="#dce9fc" xml:space="preserve" transform="matrix(1 0 -0 1 0 640)" font-size="6" font-family="JetBrains Mono" style="font-kerning:none;letter-spacing:0"><tspan y="-226.2" x="945.1">0</tspan></text>
<text fill="#dce9fc" xml:space="preserve" transform="matrix(1 0 -0 1 0 640)" font-size="6" font-family="JetBrains Mono" style="font-kerning:none;letter-spacing:0"><tspan y="-216" x="928">0</tspan></text>
<text fill="#dce9fc" xml:space="preserve" transform="matrix(1 0 -0 1 0 640)" font-size="6" font-family="JetBrains Mono" style="font-kerning:none;letter-spacing:0"><tspan y="-216" x="939.4">0</tspan></text>
<text fill="#dce9fc" xml:space="preserve" transform="matrix(1 0 -0 1 0 640)" font-size="6" font-family="JetBrains Mono" style="font-kerning:none;letter-spacing:0"><tspan y="-216" x="945.1">0</tspan></text>
<text fill="#dce9fc" xml:space="preserve" transform="matrix(1 0 -0 1 0 640)" font-size="6" font-family="JetBrains Mono" style="font-kerning:none;letter-spacing:0"><tspan y="-205.8" x="928">0</tspan></text>
<text fill="#dce9fc" xml:space="preserve" transform="matrix(1 0 -0 1 0 640)" font-size="6" font-family="JetBrains Mono" style="font-kerning:none;letter-spacing:0"><tspan y="-205.8" x="939.4">0</tspan></text>
<text fill="#dce9fc" xml:space="preserve" transform="matrix(1 0 -0 1 0 640)" font-size="6" font-family="JetBrains Mono" style="font-kerning:none;letter-spacing:0"><tspan y="-205.8" x="945.1">0</tspan></text>
<text fill="#dce9fc" xml:space="preserve" transform="matrix(1 0 -0 1 0 640)" font-size="6" font-family="JetBrains Mono" style="font-kerning:none;letter-spacing:0"><tspan y="-185.4" x="928">0</tspan></text>
<text fill="#dce9fc" xml:space="preserve" transform="matrix(1 0 -0 1 0 640)" font-size="6" font-family="JetBrains Mono" style="font-kerning:none;letter-spacing:0"><tspan y="-185.4" x="933.7">1</tspan></text>
<text fill="#dce9fc" xml:space="preserve" transform="matrix(1 0 -0 1 0 640)" font-size="6" font-family="JetBrains Mono" style="font-kerning:none;letter-spacing:0"><tspan y="-185.4" x="939.4">0</tspan></text>
<text fill="#dce9fc" xml:space="preserve" transform="matrix(1 0 -0 1 0 640)" font-size="6" font-family="JetBrains Mono" style="font-kerning:none;letter-spacing:0"><tspan y="-185.4" x="945.1">0</tspan></text>
<text fill="#dce9fc" xml:space="preserve" transform="matrix(1 0 -0 1 0 640)" font-size="6" font-family="JetBrains Mono" style="font-kerning:none;letter-spacing:0"><tspan y="-175.2" x="928">0</tspan></text>
<text fill="#dce9fc" xml:space="preserve" transform="matrix(1 0 -0 1 0 640)" font-size="6" font-family="JetBrains Mono" style="font-kerning:none;letter-spacing:0"><tspan y="-175.2" x="933.7">1</tspan></text>
<text fill="#dce9fc" xml:space="preserve" transform="matrix(1 0 -0 1 0 640)" font-size="6" font-family="JetBrains Mono" style="font-kerning:none;letter-spacing:0"><tspan y="-175.2" x="939.4">0</tspan></text>
<text fill="#dce9fc" xml:space="preserve" transform="matrix(1 0 -0 1 0 640)" font-size="6" font-family="JetBrains Mono" style="font-kerning:none;letter-spacing:0"><tspan y="-175.2" x="945.1">0</tspan></text>
<text fill="#dce9fc" xml:space="preserve" transform="matrix(1 0 -0 1 0 640)" font-size="6" font-family="JetBrains Mono" style="font-kerning:none;letter-spacing:0"><tspan y="-165" x="928">0</tspan></text>
<text fill="#dce9fc" xml:space="preserve" transform="matrix(1 0 -0 1 0 640)" font-size="6" font-family="JetBrains Mono" style="font-kerning:none;letter-spacing:0"><tspan y="-165" x="933.7">1</tspan></text>
<text fill="#dce9fc" xml:space="preserve" transform="matrix(1 0 -0 1 0 640)" font-size="6" font-family="JetBrains Mono" style="font-kerning:none;letter-spacing:0"><tspan y="-165" x="939.4">0</tspan></text>
<text fill="#dce9fc" xml:space="preserve" transform="matrix(1 0 -0 1 0 640)" font-size="6" font-family="JetBrains Mono" style="font-kerning:none;letter-spacing:0"><tspan y="-154.8" x="928">0</tspan></text>
<text fill="#dce9fc" xml:space="preserve" transform="matrix(1 0 -0 1 0 640)" font-size="6" font-family="JetBrains Mono" style="font-kerning:none;letter-spacing:0"><tspan y="-154.8" x="933.7">1</tspan></text>
<text fill="#dce9fc" xml:space="preserve" transform="matrix(1 0 -0 1 0 640)" font-size="6" font-family="JetBrains Mono" style="font-kerning:none;letter-spacing:0"><tspan y="-154.8" x="939.4">0</tspan></text>
<text fill="#dce9fc" xml:space="preserve" transform="matrix(1 0 -0 1 0 640)" font-size="6" font-family="JetBrains Mono" style="font-kerning:none;letter-spacing:0"><tspan y="-154.8" x="945.1">0</tspan></text>
<text fill="#dce9fc" xml:space="preserve" transform="matrix(1 0 -0 1 0 640)" font-size="6" font-family="JetBrains Mono" style="font-kerning:none;letter-spacing:0"><tspan y="-144.6" x="928">0</tspan></text>
<text fill="#dce9fc" xml:space="preserve" transform="matrix(1 0 -0 1 0 640)" font-size="6" font-family="JetBrains Mono" style="font-kerning:none;letter-spacing:0"><tspan y="-144.6" x="933.7">1</tspan></text>
<text fill="#dce9fc" xml:space="preserve" transform="matrix(1 0 -0 1 0 640)" font-size="6" font-family="JetBrains Mono" style="font-kerning:none;letter-spacing:0"><tspan y="-144.6" x="939.4">0</tspan></text>
<text fill="#dce9fc" xml:space="preserve" transform="matrix(1 0 -0 1 0 640)" font-size="6" font-family="JetBrains Mono" style="font-kerning:none;letter-spacing:0"><tspan y="-144.6" x="945.1">0</tspan></text>
<text fill="#dce9fc" xml:space="preserve" transform="matrix(1 0 -0 1 0 640)" font-size="6" font-family="JetBrains Mono" style="font-kerning:none;letter-spacing:0"><tspan y="-134.4" x="928">0</tspan></text>
<text fill="#dce9fc" xml:space="preserve" transform="matrix(1 0 -0 1 0 640)" font-size="6" font-family="JetBrains Mono" style="font-kerning:none;letter-spacing:0"><tspan y="-134.4" x="933.7">1</tspan></text>
<text fill="#dce9fc" xml:space="preserve" transform="matrix(1 0 -0 1 0 640)" font-size="6" font-family="JetBrains Mono" style="font-kerning:none;letter-spacing:0"><tspan y="-134.4" x="939.4">0</tspan></text>
<text fill="#dce9fc" xml:space="preserve" transform="matrix(1 0 -0 1 0 640)" font-size="6" font-family="JetBrains Mono" style="font-kerning:none;letter-spacing:0"><tspan y="-134.4" x="945.1">0</tspan></text>
<text fill="#dce9fc" xml:space="preserve" transform="matrix(1 0 -0 1 0 640)" font-size="6" font-family="JetBrains Mono" style="font-kerning:none;letter-spacing:0"><tspan y="-114" x="928">0</tspan></text>
<text fill="#dce9fc" xml:space="preserve" transform="matrix(1 0 -0 1 0 640)" font-size="6" font-family="JetBrains Mono" style="font-kerning:none;letter-spacing:0"><tspan y="-114" x="933.7">1</tspan></text>
<text fill="#dce9fc" xml:space="preserve" transform="matrix(1 0 -0 1 0 640)" font-size="6" font-family="JetBrains Mono" style="font-kerning:none;letter-spacing:0"><tspan y="-114" x="939.4">0</tspan></text>
<text fill="#dce9fc" xml:space="preserve" transform="matrix(1 0 -0 1 0 640)" font-size="6" font-family="JetBrains Mono" style="font-kerning:none;letter-spacing:0"><tspan y="-114" x="945.1">0</tspan></text>
<text fill="#dce9fc" xml:space="preserve" transform="matrix(1 0 -0 1 0 640)" font-size="6" font-family="JetBrains Mono" style="font-kerning:none;letter-spacing:0"><tspan y="-103.8" x="928">0</tspan></text>
<text fill="#dce9fc" xml:space="preserve" transform="matrix(1 0 -0 1 0 640)" font-size="6" font-family="JetBrains Mono" style="font-kerning:none;letter-spacing:0"><tspan y="-103.8" x="933.7">1</tspan></text>
<text fill="#dce9fc" xml:space="preserve" transform="matrix(1 0 -0 1 0 640)" font-size="6" font-family="JetBrains Mono" style="font-kerning:none;letter-spacing:0"><tspan y="-103.8" x="939.4">0</tspan></text>
<text fill="#dce9fc" xml:space="preserve" transform="matrix(1 0 -0 1 0 640)" font-size="6" font-family="JetBrains Mono" style="font-kerning:none;letter-spacing:0"><tspan y="-103.8" x="945.1">0</tspan></text>
<text fill="#dce9fc" xml:space="preserve" transform="matrix(1 0 -0 1 0 640)" font-size="6" font-family="JetBrains Mono" style="font-kerning:none;letter-spacing:0"><tspan y="-93.6" x="928">0</tspan></text>
<text fill="#dce9fc" xml:space="preserve" transform="matrix(1 0 -0 1 0 640)" font-size="6" font-family="JetBrains Mono" style="font-kerning:none;letter-spacing:0"><tspan y="-93.6" x="933.7">1</tspan></text>
<text fill="#dce9fc" xml:space="preserve" transform="matrix(1 0 -0 1 0 640)" font-size="6" font-family="JetBrains Mono" style="font-kerning:none;letter-spacing:0"><tspan y="-93.6" x="939.4">0</tspan></text>
<text fill="#dce9fc" xml:space="preserve" transform="matrix(1 0 -0 1 0 640)" font-size="6" font-family="JetBrains Mono" style="font-kerning:none;letter-spacing:0"><tspan y="-93.6" x="945.1">0</tspan></text>
<text fill="#dce9fc" xml:space="preserve" transform="matrix(1 0 -0 1 0 640)" font-size="6" font-family="JetBrains Mono" style="font-kerning:none;letter-spacing:0"><tspan y="-83.4" x="928">0</tspan></text>
<text fill="#dce9fc" xml:space="preserve" transform="matrix(1 0 -0 1 0 640)" font-size="6" font-family="JetBrains Mono" style="font-kerning:none;letter-spacing:0"><tspan y="-83.4" x="945.1">0</tspan></text>
<text fill="#dce9fc" xml:space="preserve" transform="matrix(1 0 -0 1 0 640)" font-size="6" font-family="JetBrains Mono" style="font-kerning:none;letter-spacing:0"><tspan y="-73.2" x="928">0</tspan></text>
<text fill="#dce9fc" xml:space="preserve" transform="matrix(1 0 -0 1 0 640)" font-size="6" font-family="JetBrains Mono" style="font-kerning:none;letter-spacing:0"><tspan y="-73.2" x="933.7">1</tspan></text>
<text fill="#dce9fc" xml:space="preserve" transform="matrix(1 0 -0 1 0 640)" font-size="6" font-family="JetBrains Mono" style="font-kerning:none;letter-spacing:0"><tspan y="-73.2" x="939.4">0</tspan></text>
<text fill="#dce9fc" xml:space="preserve" transform="matrix(1 0 -0 1 0 640)" font-size="6" font-family="JetBrains Mono" style="font-kerning:none;letter-spacing:0"><tspan y="-73.2" x="945.1">0</tspan></text>
<text fill="#dce9fc" xml:space="preserve" transform="matrix(1 0 -0 1 0 640)" font-size="6" font-family="JetBrains Mono" style="font-kerning:none;letter-spacing:0"><tspan y="-63" x="928">0</tspan></text>
<text fill="#dce9fc" xml:space="preserve" transform="matrix(1 0 -0 1 0 640)" font-size="6" font-family="JetBrains Mono" style="font-kerning:none;letter-spacing:0"><tspan y="-63" x="933.7">1</tspan></text>
<text fill="#dce9fc" xml:space="preserve" transform="matrix(1 0 -0 1 0 640)" font-size="6" font-family="JetBrains Mono" style="font-kerning:none;letter-spacing:0"><tspan y="-63" x="939.4">0</tspan></text>
<text fill="#dce9fc" xml:space="preserve" transform="matrix(1 0 -0 1 0 640)" font-size="6" font-family="JetBrains Mono" style="font-kerning:none;letter-spacing:0"><tspan y="-63" x="945.1">0</tspan></text>
</g>
<text fill="#0b1220" xml:space="preserve" transform="matrix(1 0 -0 1 0 640)" font-size="10" font-family="Space Grotesk" font-weight="600" style="font-kerning:none;letter-spacing:0"><tspan y="-602" x="48">FNLLA  /  BRAND STANDARDS</tspan></text>
<text fill="#6b7280" xml:space="preserve" transform="matrix(1 0 -0 1 0 640)" font-size="10" font-family="JetBrains Mono" style="font-kerning:none;letter-spacing:0"><tspan y="-602" x="752">EDITION 2.2.0     /     01</tspan></text>
<path transform="matrix(1,0,0,-1,0,640)" stroke-width=".8" stroke-linecap="butt" stroke-miterlimit="10" stroke-linejoin="miter" fill="none" stroke="#e5e7eb" d="M48 587H912" />
<text fill="#0b1220" xml:space="preserve" transform="matrix(1 0 -0 1 0 640)" font-size="34" font-family="Space Grotesk" font-weight="600" style="font-kerning:none;letter-spacing:0"><tspan y="-533" x="48">Brand Standards</tspan></text>
<text fill="#374151" xml:space="preserve" transform="matrix(1 0 -0 1 48 138)" font-size="12" font-family="Space Grotesk" style="font-kerning:none;letter-spacing:0"><tspan y="-5" x="0">A practical identity system for an AI-ready web framework with a PHP foundation and integrated developer tools.</tspan></text>
<path transform="matrix(1,0,0,-1,0,640)" stroke-width=".8" stroke-linecap="butt" stroke-miterlimit="10" stroke-linejoin="miter" fill="none" stroke="#e5e7eb" d="M48 37H912" />
<text fill="#2563eb" xml:space="preserve" transform="matrix(1 0 -0 1 0 640)" font-size="14" font-family="JetBrains Mono" font-weight="600" style="font-kerning:none;letter-spacing:0"><tspan y="-14" x="48">fnlla.com</tspan></text>
<text fill="#374151" xml:space="preserve" transform="matrix(1 0 -0 1 0 640)" font-size="8.5" font-family="Space Grotesk" font-weight="600" style="font-kerning:none;letter-spacing:0"><tspan y="-23.5" x="220">Created &amp; maintained by TechAyo</tspan></text>
<text fill="#2563eb" xml:space="preserve" transform="matrix(1 0 -0 1 0 640)" font-size="10" font-family="JetBrains Mono" font-weight="600" style="font-kerning:none;letter-spacing:0"><tspan y="-23" x="450">techayo.co.uk</tspan></text>
<text fill="#374151" xml:space="preserve" transform="matrix(1 0 -0 1 0 640)" font-size="8.5" font-family="JetBrains Mono" style="font-kerning:none;letter-spacing:0"><tspan y="-22.5" x="614">hello@techayo.co.uk</tspan></text>
<text fill="#6b7280" xml:space="preserve" transform="matrix(1 0 -0 1 0 640)" font-size="8.5" font-family="Space Grotesk" style="font-kerning:none;letter-spacing:0"><tspan y="-8.5" x="220">Lead Developer / Product Manager - Marcin Kordyaczny</tspan></text>
<text fill="#6b7280" xml:space="preserve" transform="matrix(1 0 -0 1 0 640)" font-size="9" font-family="JetBrains Mono" style="font-kerning:none;letter-spacing:0"><tspan y="-16" x="858">01 / 14</tspan></text>
<path transform="matrix(.33948977,0,0,.33948977,58,176.99985)" d="M457 18 451 16 133 17 123 21 115 27 28 130 20 141 16 151V564L22 572 78 573 86 569 153 485 157 478 160 466V400L242 399 254 393 259 388 347 260V253L345 249 340 246H162L160 244V151L364 150 371 148 383 140 462 39 464 27ZM148 150 149 251 153 256 333 257 334 259 246 385 239 388H156L152 390 149 394V465L142 481 78 561 28 562 27 156 32 150ZM37 138 120 39 128 32 137 28 452 29 450 36 375 132 366 138Z" fill="#2563eb" fill-rule="evenodd" />
<path transform="matrix(.33948977,0,0,.33948977,58,176.99985)" d="M428 228V564L433 571 438 573H519L524 571 529 564V330L531 328H667L673 330 691 347 693 352 694 564 699 571 704 573H786L794 567 796 562V299L792 290 724 227 718 222 710 219H440L434 221ZM439 232 711 231 778 292 785 301 784 561H705V355L702 344 686 326 678 320 668 317H529L524 319 518 328V561L441 562 439 560Z" fill="#2563eb" fill-rule="evenodd" />
<path transform="matrix(.33948977,0,0,.33948977,58,176.99985)" d="M865 171 859 182V532L861 542 866 553 876 564 886 570 896 573H1099L1104 571 1110 563V496L1105 488 1097 485 953 484V180L947 171 940 168H873ZM873 180H940L942 182 943 492 946 495 952 497H1098L1099 560 1097 562H898L884 556 875 546 871 536V182Z" fill="#2563eb" fill-rule="evenodd" />
<path transform="matrix(.33948977,0,0,.33948977,58,176.99985)" d="M1165 170 1158 179V536L1164 552 1176 565 1187 571 1195 573H1397L1403 570 1408 562V497L1405 490 1401 487 1395 485 1252 484V179L1245 170 1240 168H1171ZM1171 180H1239L1241 182 1242 491 1244 494 1251 497H1395L1397 499V560L1395 562H1197L1183 556 1173 545 1169 532V183Z" fill="#2563eb" fill-rule="evenodd" />
<path transform="matrix(.33948977,0,0,.33948977,58,176.99985)" d="M1571 180 1565 186 1562 193 1555 224 1464 547 1463 562 1467 569 1475 573H1541L1547 570 1551 565 1564 515 1568 507H1717L1720 512 1732 559 1738 570 1744 573 1815 572 1821 567 1823 563 1824 553 1786 412 1758 316 1724 187 1719 181 1711 177H1578ZM1625 291 1660 290 1664 294V299L1694 409 1693 414 1592 413 1623 293ZM1578 189 1709 188 1713 191 1813 555 1811 561H1745L1730 505 1724 498 1719 496 1570 495 1586 432 1589 426H1697L1702 424 1706 418V409L1693 365 1675 292 1672 285 1663 279H1624L1619 281 1612 290 1541 559 1538 562H1478L1474 559V554L1547 297 1573 196Z" fill="#2563eb" fill-rule="evenodd" />
<path transform="matrix(1,0,0,-1,0,640)" stroke-width=".8" stroke-linecap="butt" stroke-miterlimit="10" stroke-linejoin="miter" fill="none" stroke="#e5e7eb" d="M747 455V243" />
<text fill="#6b7280" xml:space="preserve" transform="matrix(1 0 -0 1 0 640)" font-size="9" font-family="JetBrains Mono" style="font-kerning:none;letter-spacing:0"><tspan y="-439" x="777">WEB FRAMEWORK</tspan></text>
<text fill="#0b1220" xml:space="preserve" transform="matrix(1 0 -0 1 0 640)" font-size="13" font-family="Space Grotesk" font-weight="600" style="font-kerning:none;letter-spacing:0"><tspan y="-402" x="777">PHP foundation</tspan></text>
<text fill="#0b1220" xml:space="preserve" transform="matrix(1 0 -0 1 0 640)" font-size="13" font-family="Space Grotesk" style="font-kerning:none;letter-spacing:0"><tspan y="-376" x="777">Developer tools</tspan></text>
<path transform="matrix(1,0,0,-1,0,640)" stroke-width=".8" stroke-linecap="butt" stroke-miterlimit="10" stroke-linejoin="miter" fill="none" stroke="#e5e7eb" d="M777 356H912" />
<text fill="#2563eb" xml:space="preserve" transform="matrix(1 0 -0 1 0 640)" font-size="22" font-family="JetBrains Mono" font-weight="600" style="font-kerning:none;letter-spacing:0"><tspan y="-315" x="777">FIONN AI</tspan></text>
<text fill="#374151" xml:space="preserve" transform="matrix(1 0 -0 1 777 371)" font-size="11" font-family="Space Grotesk" style="font-kerning:none;letter-spacing:0"><tspan y="-17" x="0">Persistent Personal</tspan><tspan y="-3" x="0">Intelligence by TechAyo.</tspan></text>
<text fill="#6b7280" xml:space="preserve" transform="matrix(1 0 -0 1 0 640)" font-size="9" font-family="Space Grotesk" style="font-kerning:none;letter-spacing:0"><tspan y="-233" x="777">API account required</tspan></text>
<path transform="matrix(1,0,0,-1,0,640)" stroke-width="2" stroke-linecap="butt" stroke-miterlimit="10" stroke-linejoin="miter" fill="none" stroke="#2563eb" d="M48 208H80" />
<text fill="#0b1220" xml:space="preserve" transform="matrix(1 0 -0 1 48 462)" font-size="12" font-family="Space Grotesk" font-weight="600" style="font-kerning:none;letter-spacing:0"><tspan y="-4" x="0">Build from blueprint.</tspan></text>
<text fill="#374151" xml:space="preserve" transform="matrix(1 0 -0 1 48 596)" font-size="10.5" font-family="Space Grotesk" style="font-kerning:none;letter-spacing:0"><tspan y="-101.5" x="0">FNLLA brings a structured foundation and</tspan><tspan y="-87.5" x="0">integrated project tools to developers building web</tspan><tspan y="-73.5" x="0">applications. The identity should make that</tspan><tspan y="-59.5" x="0">foundation visible: precise marks, legible information</tspan><tspan y="-45.5" x="0">and an orderly, useful product experience. Blueprint</tspan><tspan y="-31.5" x="0">means a considered plan or technical foundation:</tspan><tspan y="-17.5" x="0">start with structure, then build your application. It</tspan><tspan y="-3.5" x="0">does not promise automatic code generation.</tspan></text>
<path transform="matrix(1,0,0,-1,0,640)" stroke-width="2" stroke-linecap="butt" stroke-miterlimit="10" stroke-linejoin="miter" fill="none" stroke="#2563eb" d="M344 208H376" />
<text fill="#0b1220" xml:space="preserve" transform="matrix(1 0 -0 1 344 462)" font-size="12" font-family="Space Grotesk" font-weight="600" style="font-kerning:none;letter-spacing:0"><tspan y="-4" x="0">One product. Deliberate choices.</tspan></text>
<text fill="#374151" xml:space="preserve" transform="matrix(1 0 -0 1 344 554)" font-size="10.5" font-family="Space Grotesk" style="font-kerning:none;letter-spacing:0"><tspan y="-59.5" x="0">The integrated full starter is the main FNLLA</tspan><tspan y="-45.5" x="0">experience. Plain is an advanced core-only option</tspan><tspan y="-31.5" x="0">from the same framework. Neither option needs a</tspan><tspan y="-17.5" x="0">separate logo, colour scheme or invented product</tspan><tspan y="-3.5" x="0">name.</tspan></text>
<path transform="matrix(1,0,0,-1,0,640)" stroke-width="2" stroke-linecap="butt" stroke-miterlimit="10" stroke-linejoin="miter" fill="none" stroke="#2563eb" d="M640 208H672" />
<text fill="#0b1220" xml:space="preserve" transform="matrix(1 0 -0 1 640 462)" font-size="12" font-family="Space Grotesk" font-weight="600" style="font-kerning:none;letter-spacing:0"><tspan y="-4" x="0">How to use this book</tspan></text>
<text fill="#374151" xml:space="preserve" transform="matrix(1 0 -0 1 640 554)" font-size="10.5" font-family="Space Grotesk" style="font-kerning:none;letter-spacing:0"><tspan y="-59.5" x="0">Use the visual examples, then the supplied masters.</tspan><tspan y="-45.5" x="0">Outline is the only approved signature, in blue, black,</tspan><tspan y="-31.5" x="0">grey or white on matching blue, black and grey</tspan><tspan y="-17.5" x="0">fields. Edition 2.2.0 expands the kit, not the</tspan><tspan y="-3.5" x="0">software release status.</tspan></text>
</svg>